<svg width="204" height="60" viewBox="0 0 204 60" fill="none" xmlns="http://www.w3.org/2000/svg">
<g clip-path="url(#clip0_1_425)">
<path d="M195.795 60H7.5932C5.71229 59.9956 3.90978 59.246 2.58034 57.9154C1.25089 56.5849 0.502852 54.7817 0.5 52.9008V7.0884C0.502859 5.20849 1.25125 3.40646 2.581 2.07761C3.91075 0.748755 5.71328 0.00158672 7.5932 5.20265e-08H195.795C197.686 -0.000227043 199.5 0.743004 200.847 2.06922C202.194 3.39544 202.966 5.19825 202.995 7.0884V52.9008C202.967 54.7923 202.196 56.597 200.849 57.9252C199.502 59.2534 197.687 59.9986 195.795 60Z" fill="black"/>
<path d="M201.547 52.9018C201.547 53.6567 201.398 54.4042 201.109 55.1015C200.82 55.7988 200.396 56.4324 199.862 56.9659C199.328 57.4994 198.694 57.9224 197.997 58.2107C197.299 58.499 196.551 58.647 195.796 58.6462H7.59313C6.0676 58.6481 4.60378 58.044 3.5236 56.9668C2.44343 55.8895 1.83536 54.4274 1.83313 52.9018V7.08703C1.83504 5.56063 2.44274 4.0974 3.52274 3.01875C4.60274 1.94009 6.06673 1.33423 7.59313 1.33423H195.795C196.551 1.33439 197.298 1.48331 197.996 1.7725C198.694 2.06169 199.328 2.48548 199.862 3.01968C200.396 3.55388 200.819 4.18802 201.108 4.8859C201.397 5.58377 201.546 6.33172 201.546 7.08703V52.9018H201.547Z" fill="black"/>
<path d="M45.6921 29.6746C45.7109 28.2079 46.1005 26.7698 46.8246 25.4942C47.5487 24.2185 48.5837 23.1468 49.8333 22.3786C49.0392 21.2451 47.9919 20.3121 46.7743 19.6539C45.5568 18.9957 44.2027 18.6303 42.8193 18.5866C39.8685 18.2758 37.0065 20.3518 35.4993 20.3518C33.9657 20.3518 31.6521 18.6166 29.1573 18.6718C27.5446 18.7238 25.9729 19.1927 24.5955 20.0329C23.218 20.8731 22.0816 22.0558 21.2973 23.4658C17.8977 29.3458 20.4333 37.9978 23.6901 42.7546C25.3185 45.0838 27.2229 47.6854 29.7141 47.593C32.1513 47.4922 33.0621 46.039 36.0033 46.039C38.9181 46.039 39.7725 47.593 42.3141 47.5342C44.9301 47.4922 46.5765 45.1942 48.1485 42.8434C49.3192 41.184 50.22 39.3497 50.8173 37.4086C49.2978 36.7654 48.0015 35.6889 47.09 34.3135C46.1786 32.938 45.6924 31.3247 45.6921 29.6746Z" fill="white"/>
<path d="M40.8924 15.4584C42.3186 13.7468 43.0212 11.5466 42.8508 9.3252C40.6711 9.55371 38.6574 10.5948 37.2108 12.2412C36.504 13.0453 35.9627 13.9808 35.6178 14.9943C35.2729 16.0078 35.1312 17.0793 35.2008 18.1476C36.2912 18.1596 37.3701 17.9238 38.3561 17.458C39.342 16.9921 40.2093 16.3084 40.8924 15.4584Z" fill="white"/>
<path d="M80.968 47.256H77.5612L75.6952 41.3928H69.2092L67.432 47.256H64.1152L70.5412 27.2988H74.5096L80.968 47.256ZM75.1336 38.9328L73.4464 33.72C73.268 33.1872 72.9324 31.9336 72.4396 29.9592H72.3832C72.1864 30.808 71.8704 32.0616 71.4352 33.72L69.778 38.9328H75.1336Z" fill="white"/>
<path d="M97.4933 39.8827C97.6095 42.0013 96.8978 44.0821 95.5085 45.6859C94.951 46.2986 94.2688 46.7848 93.5077 47.1118C92.7466 47.4389 91.9243 47.5991 91.0961 47.5819C90.2935 47.6471 89.4884 47.4915 88.768 47.132C88.0475 46.7724 87.4392 46.2225 87.0089 45.5419H86.9489V53.1223H83.7509V37.6015C83.7509 36.0623 83.7109 34.4827 83.6309 32.8627H86.4437L86.6225 35.1427H86.6825C87.1672 34.4008 87.8185 33.7824 88.5845 33.3368C89.3505 32.8912 90.2099 32.6306 91.0944 32.5758C91.9789 32.521 92.8639 32.6736 93.679 33.0213C94.4941 33.369 95.2167 33.9023 95.7893 34.5787C96.98 36.0824 97.5854 37.9668 97.4933 39.8827ZM94.2353 40.0027C94.2853 38.7776 93.9541 37.5672 93.2873 36.5383C92.9786 36.0879 92.5622 35.7218 92.076 35.4735C91.5898 35.2251 91.0491 35.1023 90.5033 35.1163C89.7174 35.116 88.9569 35.394 88.3565 35.9011C87.7164 36.4229 87.2729 37.147 87.0989 37.9543C87.011 38.2725 86.9611 38.5999 86.9501 38.9299V41.3299C86.9221 42.3036 87.2653 43.2516 87.9101 43.9819C88.2216 44.3354 88.6075 44.6156 89.0401 44.8023C89.4726 44.989 89.9412 45.0777 90.4121 45.0619C90.96 45.084 91.5047 44.9681 91.9962 44.7249C92.4877 44.4817 92.9102 44.1189 93.2249 43.6699C93.944 42.5833 94.298 41.2957 94.2353 39.9943V40.0027Z" fill="white"/>
<path d="M114.049 39.8825C114.165 42.0013 113.453 44.0824 112.063 45.6857C111.506 46.2985 110.824 46.7848 110.063 47.1118C109.302 47.4389 108.48 47.5991 107.652 47.5817C106.85 47.646 106.046 47.4899 105.327 47.1303C104.608 46.7708 104.001 46.2214 103.572 45.5417H103.512V53.1221H100.308V37.6013C100.308 36.0621 100.268 34.4825 100.188 32.8625H102.998L103.177 35.1425H103.238C103.723 34.4006 104.374 33.7822 105.14 33.3366C105.906 32.8909 106.766 32.6304 107.651 32.5756C108.535 32.5208 109.42 32.6734 110.235 33.0211C111.051 33.3688 111.773 33.9021 112.346 34.5785C113.535 36.0833 114.139 37.967 114.049 39.8825ZM110.791 40.0025C110.84 38.7773 110.509 37.5668 109.842 36.5381C109.533 36.0876 109.117 35.7215 108.631 35.4731C108.145 35.2247 107.604 35.102 107.059 35.1161C106.273 35.1159 105.512 35.3939 104.911 35.9009C104.271 36.4226 103.827 37.1467 103.653 37.9541C103.566 38.2724 103.516 38.5998 103.504 38.9297V41.3297C103.478 42.3031 103.821 43.2505 104.464 43.9817C104.776 44.3351 105.163 44.6152 105.596 44.8019C106.029 44.9886 106.498 45.0773 106.969 45.0617C107.517 45.0838 108.061 44.9679 108.553 44.7247C109.044 44.4815 109.467 44.1187 109.782 43.6697C110.5 42.583 110.854 41.2954 110.791 39.9941V40.0025Z" fill="white"/>
<path d="M132.555 41.6583C132.581 42.437 132.436 43.2119 132.13 43.9283C131.824 44.6448 131.364 45.2852 130.783 45.8043C129.254 47.048 127.313 47.6716 125.346 47.5515C123.538 47.6372 121.744 47.206 120.172 46.3083L120.914 43.6431C122.306 44.4896 123.907 44.9313 125.536 44.9187C126.541 44.9788 127.535 44.6906 128.352 44.1027C128.678 43.8431 128.939 43.5104 129.114 43.1315C129.288 42.7526 129.371 42.338 129.356 41.9211C129.364 41.5425 129.295 41.1663 129.152 40.8155C129.009 40.4647 128.797 40.1467 128.527 39.8811C127.725 39.1822 126.787 38.6568 125.773 38.3379C122.278 37.0347 120.531 35.1267 120.532 32.6139C120.513 31.8463 120.668 31.0844 120.986 30.3857C121.305 29.6869 121.778 29.0697 122.37 28.5807C123.752 27.474 125.491 26.9118 127.26 27.0003C128.824 26.9457 130.378 27.271 131.79 27.9483L130.995 30.5571C129.82 29.9325 128.505 29.6166 127.174 29.6391C126.224 29.5819 125.286 29.8772 124.54 30.4683C124.285 30.6943 124.081 30.9727 123.943 31.2846C123.806 31.5965 123.737 31.9345 123.741 32.2755C123.734 32.6498 123.813 33.0208 123.972 33.3598C124.131 33.6988 124.365 33.9966 124.658 34.2303C125.538 34.8952 126.518 35.4153 127.562 35.7711C128.996 36.2766 130.293 37.107 131.353 38.1975C132.171 39.1609 132.6 40.3951 132.555 41.6583Z" fill="white"/>
<path d="M143.133 35.2623H139.608V42.2511C139.608 44.0287 140.23 44.9171 141.474 44.9163C141.952 44.9266 142.429 44.8766 142.894 44.7675L142.983 47.1963C142.182 47.4601 141.34 47.582 140.497 47.5563C139.949 47.5865 139.401 47.4989 138.89 47.2996C138.379 47.1003 137.917 46.7937 137.534 46.4007C136.716 45.2809 136.337 43.9004 136.467 42.5199V35.2551H134.367V32.8551H136.467V30.2151L139.609 29.2671V32.8551H143.134V35.2551L143.133 35.2623Z" fill="white"/>
<path d="M159.038 39.941C159.116 41.9316 158.439 43.878 157.142 45.3902C156.475 46.1185 155.657 46.692 154.745 47.0706C153.833 47.4491 152.849 47.6235 151.862 47.5814C150.918 47.6231 149.977 47.4565 149.104 47.0933C148.232 46.7302 147.45 46.1794 146.815 45.4802C145.537 44.016 144.865 42.1206 144.933 40.1786C144.852 38.1713 145.546 36.2097 146.872 34.7006C147.536 33.9869 148.348 33.4263 149.25 33.0578C150.153 32.6894 151.125 32.5219 152.098 32.567C153.049 32.5281 153.997 32.696 154.877 33.0592C155.756 33.4224 156.546 33.9722 157.192 34.6706C158.457 36.1279 159.117 38.0132 159.038 39.941ZM155.72 40.0442C155.755 38.8485 155.458 37.6664 154.862 36.629C154.593 36.1017 154.181 35.6607 153.673 35.3562C153.165 35.0517 152.582 34.8961 151.99 34.907C151.389 34.8906 150.795 35.0438 150.276 35.3492C149.757 35.6546 149.335 36.0998 149.058 36.6338C148.456 37.6925 148.159 38.8969 148.2 40.1138C148.164 41.3093 148.461 42.4911 149.058 43.5278C149.339 44.0509 149.757 44.4877 150.267 44.7911C150.777 45.0945 151.361 45.2532 151.954 45.2501C152.548 45.247 153.13 45.0823 153.637 44.7736C154.144 44.4649 154.558 44.0238 154.833 43.4978C155.445 42.4518 155.752 41.2556 155.72 40.0442Z" fill="white"/>
<path d="M169.426 35.6738C169.094 35.6136 168.756 35.5838 168.418 35.585C167.912 35.5618 167.408 35.6665 166.952 35.8894C166.497 36.1123 166.105 36.4463 165.812 36.8606C165.253 37.7004 164.973 38.6953 165.013 39.7034V47.2562H161.816L161.846 37.3958C161.846 35.7366 161.806 34.2262 161.726 32.8646H164.511L164.631 35.6186H164.72C165.022 34.7204 165.578 33.9286 166.32 33.3386C166.987 32.839 167.797 32.5684 168.631 32.567C168.898 32.5657 169.166 32.5854 169.43 32.6258V35.6738H169.426Z" fill="white"/>
<path d="M183.734 39.3781C183.741 39.8645 183.701 40.3504 183.614 40.8289H174.028C174.007 41.441 174.121 42.0503 174.362 42.6135C174.602 43.1768 174.964 43.6802 175.42 44.0881C176.313 44.7873 177.426 45.1444 178.558 45.0949C179.884 45.1125 181.2 44.8818 182.44 44.4145L182.942 46.6345C181.412 47.2601 179.769 47.5628 178.117 47.5237C177.152 47.577 176.186 47.4295 175.281 47.0906C174.375 46.7517 173.55 46.2286 172.857 45.5545C172.205 44.8448 171.7 44.0126 171.373 43.1062C171.045 42.1997 170.901 41.2372 170.948 40.2745C170.877 38.3141 171.508 36.3927 172.726 34.8553C173.325 34.1025 174.093 33.5012 174.967 33.1001C175.842 32.699 176.798 32.5094 177.759 32.5465C178.676 32.4957 179.591 32.6814 180.416 33.0856C181.241 33.4899 181.949 34.0993 182.47 34.8553C183.347 36.1969 183.788 37.7764 183.734 39.3781ZM180.685 38.5489C180.727 37.6858 180.51 36.8297 180.063 36.0901C179.799 35.6577 179.423 35.3051 178.974 35.0703C178.525 34.8354 178.02 34.7271 177.514 34.7569C177.016 34.7482 176.523 34.8625 176.079 35.0898C175.635 35.3172 175.254 35.6504 174.969 36.0601C174.426 36.7834 174.1 37.6461 174.028 38.5477H180.69L180.685 38.5489Z" fill="white"/>
<path d="M74.076 15.0127C74.13 15.7541 74.0153 16.498 73.7405 17.1886C73.4658 17.8793 73.0381 18.4987 72.4896 19.0003C71.2887 19.8944 69.809 20.3325 68.3148 20.2363C67.5467 20.242 66.779 20.2019 66.0156 20.1163V10.4719C66.9111 10.3317 67.8164 10.2635 68.7228 10.2679C70.1098 10.1669 71.4873 10.5643 72.6072 11.3887C73.1072 11.8447 73.4987 12.4069 73.7529 13.034C74.0071 13.6612 74.1175 14.3373 74.076 15.0127ZM72.4188 15.0559C72.4516 14.5775 72.3882 14.0973 72.2321 13.6439C72.0761 13.1904 71.8307 12.7729 71.5104 12.4159C71.1522 12.0919 70.7322 11.8437 70.2757 11.6862C69.8191 11.5286 69.3354 11.465 68.8536 11.4991C68.4293 11.4927 68.0054 11.5268 67.5876 11.6011V18.9343C67.9403 18.9714 68.2951 18.9858 68.6496 18.9775C69.1578 19.0098 69.6672 18.9375 70.1463 18.7649C70.6254 18.5924 71.064 18.3233 71.4348 17.9743C71.7825 17.5764 72.0482 17.1138 72.2168 16.613C72.3855 16.1122 72.4537 15.5831 72.4176 15.0559H72.4188Z" fill="white"/>
<path d="M82.8628 16.5549C82.9013 17.5328 82.5687 18.4892 81.9316 19.2321C81.6046 19.5901 81.2033 19.8723 80.7558 20.0589C80.3082 20.2454 79.8253 20.3319 79.3408 20.3121C78.8768 20.3328 78.414 20.2509 77.9853 20.0723C77.5566 19.8937 77.1725 19.6228 76.8604 19.2789C76.2339 18.5592 75.9041 17.6285 75.9376 16.6749C75.8984 15.6898 76.2395 14.7274 76.8904 13.9869C77.2171 13.6368 77.6159 13.3619 78.0593 13.1812C78.5027 13.0005 78.9801 12.9184 79.4584 12.9405C79.9254 12.9218 80.3909 13.0044 80.823 13.1825C81.2551 13.3606 81.6435 13.6301 81.9616 13.9725C82.5779 14.6883 82.8999 15.6111 82.8628 16.5549ZM81.232 16.6065C81.2488 16.0184 81.1031 15.4371 80.8108 14.9265C80.6777 14.6688 80.4751 14.4535 80.2259 14.305C79.9766 14.1565 79.6908 14.0808 79.4008 14.0865C79.1063 14.078 78.8152 14.1522 78.5607 14.3006C78.3062 14.4491 78.0984 14.6659 77.9608 14.9265C77.6657 15.446 77.5199 16.037 77.5396 16.6341C77.5228 17.2222 77.6686 17.8035 77.9608 18.3141C78.0982 18.5719 78.3042 18.7868 78.5559 18.935C78.8077 19.0832 79.0955 19.1591 79.3876 19.1541C79.6795 19.1559 79.9662 19.0763 80.2153 18.9241C80.4644 18.7718 80.6661 18.5531 80.7976 18.2925C81.0949 17.7814 81.2437 17.1975 81.2272 16.6065H81.232Z" fill="white"/>
<path d="M94.6479 13.0786L92.4351 20.149H90.9951L90.0783 17.0782C89.8499 16.3284 89.6601 15.5674 89.5095 14.7982H89.4807C89.3448 15.5706 89.1547 16.3325 88.9119 17.0782L87.9387 20.149H86.4831L84.4023 13.0786H86.0175L86.8167 16.4386C87.0103 17.2338 87.1703 17.9902 87.2967 18.7078H87.3255C87.4423 18.1166 87.6367 17.365 87.9087 16.453L88.9119 13.0786H90.1923L91.1523 16.381C91.3851 17.1866 91.5739 17.9626 91.7187 18.709H91.7619C91.8803 17.925 92.0405 17.1479 92.2419 16.381L93.0999 13.0786H94.6431H94.6479Z" fill="white"/>
<path d="M102.798 20.149H101.226V16.099C101.226 14.851 100.751 14.227 99.8012 14.227C99.5853 14.2207 99.3708 14.2638 99.174 14.353C98.9773 14.4422 98.8035 14.5752 98.666 14.7418C98.3779 15.0792 98.2227 15.5101 98.2292 15.9538V20.1478H96.6572V15.0982C96.6572 14.4774 96.638 13.803 96.5996 13.075H97.9808L98.054 14.1802H98.0972C98.2889 13.829 98.57 13.5346 98.912 13.327C99.3396 13.0624 99.8336 12.9247 100.336 12.9298C100.64 12.9205 100.942 12.9724 101.224 13.0825C101.507 13.1926 101.765 13.3586 101.982 13.5706C102.271 13.8844 102.493 14.2545 102.633 14.6576C102.773 15.0608 102.829 15.4885 102.796 15.9142L102.798 20.149Z" fill="white"/>
<path d="M107.132 20.1491H105.561V9.8291H107.132V20.1491Z" fill="white"/>
<path d="M116.386 16.5554C116.425 17.5333 116.092 18.4896 115.455 19.2326C115.128 19.5906 114.727 19.8727 114.279 20.0592C113.832 20.2458 113.349 20.3323 112.864 20.3126C112.4 20.3335 111.938 20.2517 111.509 20.0731C111.08 19.8946 110.696 19.6235 110.384 19.2794C109.757 18.5597 109.428 17.629 109.461 16.6754C109.422 15.6903 109.763 14.7279 110.414 13.9874C110.74 13.6374 111.139 13.3625 111.582 13.1819C112.026 13.0012 112.503 12.919 112.981 12.941C113.448 12.9219 113.914 13.0043 114.347 13.1825C114.779 13.3606 115.168 13.6303 115.486 13.973C116.102 14.689 116.424 15.6117 116.386 16.5554ZM114.754 16.607C114.771 16.0189 114.625 15.4376 114.333 14.927C114.2 14.6693 113.998 14.4539 113.749 14.3054C113.5 14.157 113.214 14.0813 112.924 14.087C112.63 14.0781 112.339 14.1521 112.084 14.3006C111.829 14.4491 111.622 14.6661 111.484 14.927C111.189 15.4465 111.043 16.0374 111.063 16.6346C111.046 17.2227 111.192 17.804 111.484 18.3146C111.622 18.5724 111.828 18.7873 112.08 18.9355C112.331 19.0837 112.619 19.1595 112.911 19.1546C113.203 19.1565 113.489 19.0768 113.738 18.9246C113.987 18.7723 114.189 18.5536 114.32 18.293C114.62 17.7827 114.77 17.1986 114.754 16.607Z" fill="white"/>
<path d="M123.998 20.1492H122.583L122.463 19.3344H122.42C122.183 19.6544 121.87 19.9109 121.51 20.0811C121.149 20.2513 120.753 20.3299 120.355 20.31C120.056 20.3224 119.758 20.2718 119.48 20.1614C119.201 20.051 118.95 19.8833 118.741 19.6692C118.558 19.4774 118.415 19.2515 118.32 19.0044C118.226 18.7573 118.18 18.4938 118.188 18.2292C118.172 17.8325 118.264 17.4391 118.454 17.0907C118.645 16.7423 118.926 16.4519 119.268 16.2504C120.201 15.7445 121.258 15.5128 122.317 15.582V15.45C122.317 14.5188 121.827 14.0532 120.848 14.0532C120.195 14.0408 119.554 14.2229 119.005 14.5764L118.686 13.5444C119.423 13.1166 120.266 12.9053 121.118 12.9348C122.966 12.9348 123.891 13.9096 123.894 15.8592V18.4632C123.885 19.027 123.92 19.5907 123.998 20.1492ZM122.366 17.7192V16.6272C120.632 16.5968 119.765 17.072 119.764 18.0528C119.752 18.2045 119.773 18.357 119.825 18.5C119.877 18.643 119.959 18.7733 120.066 18.882C120.277 19.0691 120.552 19.1679 120.834 19.158C121.181 19.1567 121.518 19.0416 121.794 18.8304C121.972 18.7051 122.117 18.5383 122.216 18.3445C122.315 18.1507 122.366 17.9357 122.364 17.718L122.366 17.7192Z" fill="white"/>
<path d="M132.927 20.1491H131.533L131.46 19.0139H131.415C131.207 19.4306 130.881 19.7763 130.476 20.007C130.072 20.2377 129.608 20.3432 129.144 20.3099C128.736 20.3164 128.333 20.2293 127.965 20.0553C127.597 19.8814 127.273 19.6253 127.02 19.3067C126.435 18.5683 126.137 17.6436 126.18 16.7027C126.133 15.6951 126.459 14.7056 127.096 13.9235C127.365 13.6082 127.7 13.356 128.077 13.1849C128.455 13.0138 128.865 12.9279 129.279 12.9335C129.667 12.8947 130.059 12.9637 130.41 13.1331C130.762 13.3025 131.06 13.5657 131.271 13.8935H131.301V9.83398H132.874V18.2447C132.873 18.9327 132.89 19.5675 132.927 20.1491ZM131.298 17.1671V15.9875C131.301 15.8213 131.287 15.6551 131.254 15.4919C131.171 15.1221 130.971 14.7885 130.686 14.5391C130.396 14.2839 130.021 14.1465 129.634 14.1539C129.364 14.145 129.095 14.2043 128.854 14.3263C128.612 14.4484 128.405 14.6293 128.252 14.8523C127.899 15.3803 127.722 16.0068 127.748 16.6415C127.719 17.2462 127.888 17.8438 128.228 18.3443C128.381 18.5656 128.587 18.7453 128.827 18.867C129.067 18.9888 129.333 19.0488 129.602 19.0415C129.84 19.0491 130.077 19.0003 130.293 18.8992C130.508 18.7981 130.697 18.6474 130.844 18.4595C131.147 18.0983 131.309 17.6388 131.298 17.1671Z" fill="white"/>
<path d="M146.37 16.555C146.408 17.533 146.075 18.4893 145.438 19.2322C145.112 19.5904 144.71 19.8727 144.263 20.0592C143.815 20.2458 143.332 20.3322 142.848 20.3122C142.384 20.3326 141.921 20.2505 141.492 20.072C141.064 19.8934 140.68 19.6227 140.367 19.279C139.741 18.5594 139.411 17.6286 139.444 16.675C139.406 15.6896 139.748 14.7271 140.4 13.987C140.726 13.6368 141.125 13.3619 141.569 13.1812C142.013 13.0005 142.49 12.9184 142.969 12.9406C143.436 12.9215 143.901 13.0038 144.333 13.182C144.765 13.3602 145.153 13.6299 145.471 13.9726C146.086 14.6888 146.407 15.6115 146.37 16.555ZM144.741 16.6066C144.758 16.0186 144.612 15.4372 144.32 14.9266C144.186 14.6693 143.983 14.4543 143.734 14.3059C143.485 14.1575 143.199 14.0816 142.909 14.0866C142.614 14.0785 142.323 14.1529 142.069 14.3013C141.815 14.4498 141.607 14.6663 141.469 14.9266C141.174 15.4461 141.028 16.0371 141.048 16.6342C141.031 17.2223 141.177 17.8036 141.469 18.3142C141.607 18.5711 141.813 18.7854 142.063 18.9343C142.314 19.0832 142.601 19.161 142.892 19.1594C143.184 19.1578 143.47 19.0769 143.719 18.9252C143.968 18.7736 144.171 18.557 144.307 18.2986C144.607 17.7862 144.758 17.2003 144.744 16.6066H144.741Z" fill="white"/>
<path d="M154.825 20.1489H153.254V16.0989C153.254 14.8509 152.778 14.2269 151.827 14.2269C151.611 14.2205 151.397 14.2635 151.2 14.3527C151.004 14.442 150.83 14.575 150.693 14.7417C150.405 15.0789 150.249 15.51 150.256 15.9537V20.1477H148.686V15.0981C148.686 14.4773 148.667 13.8029 148.63 13.0749H150.006L150.079 14.1801H150.126C150.318 13.8296 150.599 13.5355 150.94 13.3269C151.369 13.0622 151.864 12.9245 152.367 12.9297C152.67 12.9206 152.972 12.9726 153.254 13.0827C153.537 13.1928 153.794 13.3587 154.011 13.5705C154.301 13.8842 154.523 14.2542 154.663 14.6575C154.803 15.0607 154.859 15.4885 154.826 15.9141L154.825 20.1489Z" fill="white"/>
<path d="M165.404 14.2562H163.672V17.6906C163.672 18.5642 163.98 18.9998 164.589 18.9998C164.825 19.0053 165.06 18.9807 165.29 18.9266L165.331 20.1194C164.937 20.249 164.524 20.3083 164.109 20.2946C163.84 20.3096 163.572 20.2666 163.321 20.1687C163.07 20.0708 162.843 19.9201 162.656 19.727C162.253 19.1774 162.066 18.4986 162.132 17.8202V14.2562H161.098V13.079H162.132V11.783L163.672 11.3174V13.0766H165.404V14.255V14.2562Z" fill="white"/>
<path d="M173.726 20.1491H172.158V16.1267C172.158 14.8595 171.683 14.2255 170.734 14.2247C170.397 14.2127 170.065 14.3151 169.793 14.5153C169.52 14.7154 169.324 15.0016 169.234 15.3275C169.183 15.5114 169.158 15.7018 169.161 15.8927V20.1455H167.586V9.83398H169.158V14.0951H169.188C169.405 13.7287 169.717 13.4274 170.09 13.2229C170.464 13.0183 170.886 12.9179 171.312 12.9323C171.611 12.923 171.909 12.9751 172.187 13.0853C172.465 13.1955 172.718 13.3615 172.929 13.5731C173.214 13.8951 173.431 14.2707 173.568 14.678C173.706 15.0852 173.76 15.5158 173.728 15.9443L173.726 20.1491Z" fill="white"/>
<path d="M182.311 16.2803C182.314 16.5192 182.294 16.7579 182.252 16.9931H177.537C177.527 17.2936 177.583 17.5926 177.701 17.8691C177.819 18.1456 177.996 18.393 178.22 18.5939C178.659 18.9372 179.206 19.1125 179.763 19.0883C180.414 19.0969 181.061 18.9833 181.67 18.7535L181.916 19.8455C181.164 20.1524 180.356 20.3011 179.544 20.2823C179.07 20.3086 178.596 20.2361 178.151 20.0697C177.707 19.9032 177.302 19.6462 176.962 19.3151C176.641 18.9663 176.393 18.557 176.232 18.1111C176.071 17.6652 176.001 17.1917 176.025 16.7183C175.99 15.755 176.3 14.8107 176.899 14.0555C177.193 13.6855 177.57 13.39 177.999 13.193C178.429 12.9959 178.899 12.9029 179.371 12.9215C179.821 12.8966 180.27 12.9879 180.675 13.1864C181.079 13.385 181.426 13.6843 181.682 14.0555C182.119 14.7131 182.339 15.4912 182.311 16.2803ZM180.805 15.8735C180.827 15.4497 180.72 15.0291 180.5 14.6663C180.37 14.4539 180.185 14.2808 179.965 14.1654C179.745 14.05 179.497 13.9966 179.248 14.0111C179.003 14.0071 178.761 14.0634 178.543 14.1752C178.325 14.287 178.138 14.4507 177.998 14.6519C177.731 15.0079 177.569 15.4315 177.531 15.8747H180.805V15.8735Z" fill="white"/>
</g>
<defs>
<clipPath id="clip0_1_425">
<rect width="203" height="60" fill="white" transform="translate(0.5)"/>
</clipPath>
</defs>
</svg>
