<svg width="24" height="24" viewBox="0 0 24 24" fill="none" xmlns="http://www.w3.org/2000/svg">
<path opacity="0.1" fill-rule="evenodd" clip-rule="evenodd" d="M0 12C0 5.37258 5.37258 0 12 0C18.6274 0 24 5.37258 24 12C24 18.6274 18.6274 24 12 24C5.37258 24 0 18.6274 0 12Z" fill="#FF5555"/>
<path d="M13.4084 13.1438H14.7313L15.2605 11.0271H13.4084V9.96877C13.4084 9.42372 13.4084 8.91043 14.4667 8.91043H15.2605V7.13243C15.088 7.10968 14.4366 7.05835 13.7486 7.05835C12.312 7.05835 11.2917 7.93518 11.2917 9.54543V11.0271H9.70422V13.1438H11.2917V17.6417H13.4084V13.1438Z" fill="#FF5555"/>
</svg>
