<svg width="205" height="60" viewBox="0 0 205 60" fill="none" xmlns="http://www.w3.org/2000/svg">
<g clip-path="url(#clip0_1_413)">
<path fill-rule="evenodd" clip-rule="evenodd" d="M196.3 60H8.0336C6.04166 59.9991 4.13108 59.2097 2.71943 57.8043C1.30777 56.3989 0.509831 54.4919 0.5 52.5V7.5C0.507306 5.5073 1.30444 3.59881 2.71664 2.1929C4.12885 0.786993 6.04089 -0.00159928 8.0336 2.43518e-06H196.3C198.293 -0.000965975 200.205 0.787831 201.617 2.1936C203.029 3.59937 203.826 5.5075 203.834 7.5V52.5C203.824 54.4917 203.025 56.3984 201.614 57.8036C200.202 59.2088 198.292 59.9984 196.3 60Z" fill="black"/>
<path fill-rule="evenodd" clip-rule="evenodd" d="M196.3 1.2C197.974 1.20029 199.579 1.86294 200.766 3.04317C201.952 4.2234 202.624 5.82527 202.633 7.4988V52.4988C202.627 54.1737 201.957 55.778 200.77 56.9595C199.583 58.1409 197.975 58.8029 196.3 58.8H8.0336C6.35963 58.8 4.75372 58.1373 3.56691 56.9568C2.38009 55.7763 1.70888 54.1739 1.7 52.5V7.5C1.70572 5.82507 2.37592 4.22087 3.56342 3.03967C4.75093 1.85846 6.35866 1.19681 8.0336 1.2H196.3ZM196.3 0H8.0336C6.04166 0.000927151 4.13108 0.790334 2.71943 2.1957C1.30777 3.60106 0.509831 5.50809 0.5 7.5V52.5C0.507306 54.4927 1.30444 56.4012 2.71664 57.8071C4.12885 59.213 6.04089 60.0016 8.0336 60H196.3C198.293 60.001 200.205 59.2122 201.617 57.8064C203.029 56.4006 203.826 54.4925 203.834 52.5V7.5C203.824 5.50828 203.025 3.60162 201.614 2.19639C200.202 0.791168 198.292 0.00155756 196.3 0Z" fill="black"/>
<path d="M107.622 19.8479C106.987 19.8632 106.356 19.7457 105.769 19.5029C105.182 19.2601 104.652 18.8974 104.214 18.438C103.768 17.9842 103.416 17.4462 103.18 16.8554C102.944 16.2645 102.827 15.6326 102.837 14.9963C102.822 14.3599 102.936 13.7269 103.172 13.1359C103.409 12.5449 103.763 12.0082 104.214 11.5584C104.652 11.099 105.18 10.7363 105.767 10.4935C106.353 10.2506 106.984 10.1331 107.618 10.1483C108.252 10.1363 108.883 10.2553 109.469 10.4979C110.056 10.7405 110.586 11.1015 111.026 11.5584C111.91 12.4846 112.403 13.7156 112.403 14.9958C112.403 16.2759 111.91 17.5069 111.026 18.4332C110.59 18.8946 110.061 19.2591 109.474 19.5029C108.888 19.7466 108.257 19.8642 107.622 19.8479ZM67.2192 19.8479C66.5846 19.8573 65.9544 19.7389 65.3665 19.4997C64.7785 19.2606 64.2447 18.9056 63.7968 18.4559C63.1094 17.7798 62.6393 16.9141 62.4465 15.9694C62.2537 15.0247 62.347 14.044 62.7144 13.1526C63.0818 12.2612 63.7065 11.4996 64.509 10.9651C65.3114 10.4306 66.2551 10.1475 67.2192 10.152C67.8769 10.1508 68.5276 10.2856 69.1307 10.5479C69.6906 10.7761 70.1892 11.1325 70.5863 11.5884L70.6764 11.6963L69.6623 12.6912L69.558 12.5712C69.2706 12.232 68.9086 11.964 68.5004 11.788C68.0921 11.6121 67.6486 11.5331 67.2047 11.5571C66.7695 11.5521 66.3378 11.6345 65.935 11.7994C65.5322 11.9643 65.1667 12.2084 64.8599 12.5171C64.2256 13.1915 63.8725 14.0825 63.8725 15.0084C63.8725 15.9342 64.2256 16.8252 64.8599 17.4995C65.4988 18.1139 66.3507 18.4571 67.2371 18.4571C68.1235 18.4571 68.9755 18.1139 69.6144 17.4995C70.013 17.072 70.2553 16.5222 70.302 15.9396H67.0512V14.5403H71.6975L71.7167 14.6676C71.7553 14.9001 71.7778 15.1351 71.784 15.3708C71.8108 15.9397 71.7219 16.5082 71.5226 17.0418C71.3234 17.5754 71.0178 18.063 70.6247 18.4752C70.1839 18.9299 69.6527 19.287 69.0652 19.5235C68.4778 19.76 67.8473 19.8705 67.2144 19.8479H67.2192ZM120.938 19.6499H119.502L115.114 12.6288L115.152 13.8935V19.6463H113.719V10.3511H115.353L115.398 10.422L119.523 17.0352L119.486 15.774V10.3499H120.933L120.938 19.6499ZM96.8555 19.6499H95.4047V11.7492H92.8847V10.3499H99.3648V11.7492H96.8448V19.6499H96.8555ZM91.7051 19.6499H90.258V10.3511H91.7051V19.6499ZM83.5692 19.6499H82.122V11.7492H79.602V10.3499H86.082V11.7492H83.5619L83.5692 19.6499ZM78.6875 19.6355H73.1363V10.3511H78.6875V11.7504H74.5884V14.3015H78.288V15.6852H74.5884V18.2364H78.6875V19.6355ZM105.276 17.4756C105.58 17.7888 105.944 18.0366 106.348 18.2038C106.751 18.3709 107.184 18.4539 107.62 18.4476C108.058 18.4591 108.493 18.3785 108.897 18.211C109.301 18.0436 109.665 17.793 109.966 17.4756C110.581 16.7974 110.922 15.9147 110.922 14.9993C110.922 14.0839 110.581 13.2013 109.966 12.5231C109.662 12.2102 109.297 11.9626 108.894 11.7954C108.491 11.6283 108.058 11.5452 107.622 11.5511C107.185 11.5396 106.751 11.6201 106.347 11.7876C105.944 11.9551 105.58 12.2057 105.28 12.5231C104.666 13.2009 104.324 14.0829 104.323 14.998C104.322 15.9131 104.66 16.796 105.273 17.4756H105.276Z" fill="white"/>
<path fill-rule="evenodd" clip-rule="evenodd" d="M102.698 32.6295C101.437 32.6332 100.205 33.0107 99.1582 33.7142C98.1113 34.4178 97.2963 35.4158 96.8162 36.5822C96.3362 37.7486 96.2126 39.0311 96.461 40.2677C96.7094 41.5044 97.3187 42.6397 98.2119 43.5302C99.1052 44.4208 100.242 45.0267 101.479 45.2713C102.717 45.516 103.999 45.3886 105.164 44.905C106.329 44.4214 107.324 43.6035 108.025 42.5544C108.725 41.5054 109.099 40.2724 109.099 39.011C109.112 38.1676 108.956 37.3301 108.639 36.5485C108.322 35.7669 107.85 35.0572 107.253 34.4616C106.656 33.8661 105.945 33.3969 105.162 33.0821C104.379 32.7673 103.541 32.6134 102.698 32.6295ZM102.698 42.8642C101.921 42.9202 101.145 42.7408 100.472 42.3496C99.7985 41.9583 99.2582 41.3732 98.9218 40.6706C98.5854 39.968 98.4685 39.1804 98.5861 38.4104C98.7036 37.6403 99.0504 36.9236 99.5811 36.3534C100.112 35.7832 100.802 35.386 101.561 35.2136C102.321 35.0412 103.115 35.1016 103.84 35.3868C104.565 35.672 105.187 36.169 105.625 36.8128C106.064 37.4567 106.298 38.2176 106.298 38.9966C106.322 39.4888 106.248 39.9808 106.079 40.4437C105.91 40.9065 105.65 41.3308 105.314 41.6917C104.979 42.0526 104.574 42.3427 104.125 42.5449C103.676 42.7471 103.191 42.8573 102.698 42.869V42.8642ZM88.7376 32.6295C87.4762 32.633 86.2442 33.0103 85.1971 33.7137C84.15 34.417 83.3349 35.4149 82.8547 36.5813C82.3744 37.7477 82.2506 39.0303 82.4989 40.267C82.7471 41.5037 83.3563 42.6391 84.2495 43.5298C85.1427 44.4205 86.2799 45.0265 87.5173 45.2713C88.7547 45.5161 90.0369 45.3887 91.2019 44.9051C92.367 44.4216 93.3625 43.6036 94.0629 42.5546C94.7633 41.5055 95.1372 40.2724 95.1372 39.011C95.1508 38.1677 94.9943 37.3303 94.6773 36.5488C94.3602 35.7672 93.889 35.0576 93.2918 34.462C92.6946 33.8665 91.9835 33.3973 91.2011 33.0825C90.4186 32.7676 89.5809 32.6136 88.7376 32.6295ZM88.7376 42.8642C87.9607 42.9202 87.1848 42.7408 86.5112 42.3496C85.8376 41.9583 85.2975 41.3732 84.9611 40.6706C84.6247 39.968 84.5076 39.1804 84.6252 38.4104C84.7428 37.6403 85.0896 36.9236 85.6203 36.3534C86.151 35.7832 86.8412 35.386 87.6009 35.2136C88.3606 35.0412 89.1545 35.1016 89.8793 35.3868C90.6042 35.672 91.2264 36.169 91.6648 36.8128C92.1033 37.4567 92.3378 38.2176 92.3376 38.9966C92.3618 39.4888 92.2871 39.9808 92.1182 40.4437C91.9493 40.9065 91.6895 41.3308 91.354 41.6917C91.0185 42.0526 90.6142 42.3427 90.1648 42.5449C89.7155 42.7471 89.2302 42.8573 88.7376 42.869V42.8642ZM72.1212 34.5842V37.2855H78.6012C78.5052 38.5508 77.989 39.7478 77.1347 40.6862C76.4865 41.3487 75.7062 41.8674 74.8446 42.2089C73.983 42.5505 73.0592 42.707 72.1332 42.6686C70.2236 42.6686 68.3922 41.9101 67.042 40.5598C65.6917 39.2096 64.9332 37.3782 64.9332 35.4686C64.9332 33.5591 65.6917 31.7277 67.042 30.3775C68.3922 29.0272 70.2236 28.2686 72.1332 28.2686C73.9513 28.2471 75.7049 28.942 77.0148 30.203L78.9347 28.283C78.0438 27.3981 76.9851 26.7003 75.8205 26.2307C74.6559 25.761 73.4091 25.529 72.1535 25.5483C70.8351 25.5192 69.5242 25.7538 68.2976 26.2383C67.0711 26.7227 65.9538 27.4474 65.0111 28.3695C64.0684 29.2917 63.3194 30.3929 62.808 31.6085C62.2966 32.824 62.0332 34.1295 62.0332 35.4483C62.0332 36.767 62.2966 38.0724 62.808 39.288C63.3194 40.5035 64.0684 41.6048 65.0111 42.527C65.9538 43.4491 67.0711 44.1737 68.2976 44.6582C69.5242 45.1426 70.8351 45.3773 72.1535 45.3483C73.4379 45.4014 74.7189 45.1807 75.9115 44.7009C77.104 44.2212 78.1807 43.4932 79.0704 42.5654C80.6495 40.8418 81.4927 38.5695 81.42 36.233C81.4269 35.6694 81.3766 35.1065 81.27 34.553H72.12L72.1188 34.583L72.1212 34.5842ZM140.085 36.6866C139.702 35.5296 138.972 34.5185 137.995 33.791C137.017 33.0635 135.839 32.6551 134.62 32.621C133.801 32.6264 132.991 32.7979 132.239 33.1252C131.488 33.4525 130.81 33.9288 130.248 34.5253C129.686 35.1218 129.251 35.8262 128.968 36.5957C128.686 37.3653 128.563 38.1841 128.606 39.0026C128.587 39.8417 128.737 40.6761 129.048 41.4558C129.359 42.2355 129.824 42.9444 130.415 43.5402C131.006 44.136 131.712 44.6064 132.489 44.9232C133.266 45.2401 134.099 45.3969 134.938 45.3842C135.99 45.3906 137.027 45.135 137.955 44.6406C138.883 44.1462 139.673 43.4285 140.254 42.5522L138.094 41.1015C137.77 41.6427 137.311 42.0902 136.761 42.3997C136.212 42.7093 135.591 42.8703 134.96 42.8667C134.309 42.891 133.666 42.7197 133.113 42.3749C132.56 42.0301 132.123 41.5276 131.859 40.9322L140.391 37.397L140.083 36.6855L140.085 36.6866ZM131.384 38.819C131.355 38.3551 131.418 37.89 131.57 37.4508C131.723 37.0116 131.961 36.607 132.271 36.2608C132.581 35.9146 132.957 35.6335 133.377 35.434C133.797 35.2346 134.252 35.1207 134.716 35.099C135.2 35.0657 135.683 35.176 136.104 35.4162C136.526 35.6564 136.866 36.0157 137.084 36.449L131.384 38.819ZM124.453 45.0026H127.257V26.2526H124.455L124.453 45.0026ZM119.852 34.0538H119.751C119.325 33.5885 118.804 33.22 118.223 32.9728C117.643 32.7257 117.016 32.6057 116.385 32.621C114.739 32.6888 113.184 33.3901 112.043 34.5785C110.903 35.7669 110.266 37.3501 110.266 38.9972C110.266 40.6443 110.903 42.2275 112.043 43.4159C113.184 44.6043 114.739 45.3057 116.385 45.3734C117.017 45.3873 117.645 45.2648 118.226 45.0145C118.807 44.7642 119.327 44.3918 119.751 43.9226H119.852V44.8394C119.852 47.2742 118.55 48.587 116.451 48.587C115.751 48.5703 115.071 48.3458 114.498 47.9423C113.925 47.5387 113.485 46.9742 113.234 46.3202L110.799 47.3378C111.261 48.4553 112.044 49.4104 113.05 50.0812C114.056 50.752 115.238 51.1082 116.448 51.1046C119.732 51.1046 122.515 49.1703 122.515 44.4543V33.0038H119.866V34.055L119.852 34.0538ZM116.635 42.8703C115.666 42.7883 114.763 42.3455 114.105 41.6296C113.447 40.9137 113.082 39.9768 113.082 39.0045C113.082 38.0321 113.447 37.0952 114.105 36.3792C114.763 35.6633 115.666 35.2206 116.635 35.1387C117.116 35.1621 117.587 35.2822 118.021 35.4918C118.455 35.7014 118.842 35.9961 119.159 36.3585C119.476 36.7209 119.717 37.1436 119.868 37.6011C120.018 38.0587 120.075 38.5418 120.034 39.0218C120.076 39.5004 120.02 39.9824 119.869 40.4386C119.719 40.8948 119.477 41.3157 119.159 41.6755C118.841 42.0354 118.453 42.3268 118.018 42.5319C117.584 42.7371 117.112 42.8518 116.632 42.869L116.635 42.8703ZM153.204 26.2538H146.504V45.0015H149.306V37.9022H153.207C153.999 37.9463 154.792 37.8283 155.537 37.5555C156.282 37.2827 156.963 36.8608 157.54 36.3157C158.116 35.7705 158.575 35.1136 158.889 34.3849C159.202 33.6563 159.364 32.8713 159.364 32.078C159.364 31.2847 159.202 30.4997 158.889 29.7711C158.575 29.0425 158.116 28.3855 157.54 27.8404C156.963 27.2952 156.282 26.8733 155.537 26.6005C154.792 26.3277 153.999 26.2097 153.207 26.2538H153.204ZM153.286 35.2838H149.302V28.8494H153.286C153.709 28.8494 154.127 28.9327 154.517 29.0943C154.908 29.256 155.263 29.4929 155.561 29.7917C155.86 30.0904 156.097 30.4451 156.259 30.8355C156.42 31.2258 156.504 31.6442 156.504 32.0667C156.504 32.4892 156.42 32.9075 156.259 33.2978C156.097 33.6881 155.86 34.0428 155.561 34.3416C155.263 34.6403 154.908 34.8772 154.517 35.0389C154.127 35.2006 153.709 35.2838 153.286 35.2838ZM170.587 32.6018C169.565 32.5434 168.548 32.7831 167.66 33.2919C166.772 33.8006 166.051 34.5565 165.585 35.4674L168.069 36.4994C168.315 36.0468 168.687 35.6753 169.14 35.4297C169.593 35.1842 170.107 35.0751 170.62 35.1158C171.332 35.0474 172.041 35.2632 172.594 35.716C173.147 36.1687 173.498 36.8218 173.571 37.5327V37.7306C172.671 37.2578 171.669 37.0108 170.653 37.0107C167.971 37.0107 165.253 38.4771 165.253 41.2263C165.278 41.806 165.419 42.3748 165.668 42.8989C165.917 43.423 166.269 43.8918 166.703 44.2774C167.136 44.6629 167.643 44.9575 168.193 45.1435C168.743 45.3295 169.324 45.4032 169.903 45.3602C170.607 45.4014 171.309 45.2531 171.936 44.9308C172.563 44.6086 173.092 44.1241 173.468 43.5278H173.569V44.9798H176.27V37.7978C176.265 34.4522 173.781 32.6006 170.583 32.6006L170.587 32.6018ZM170.235 42.8703C169.318 42.8703 168.036 42.4214 168.036 41.2694C168.036 39.8186 169.636 39.2678 171.002 39.2678C171.894 39.2404 172.777 39.4592 173.553 39.9002C173.455 40.7142 173.063 41.4646 172.452 42.011C171.841 42.5574 171.051 42.8624 170.232 42.869L170.235 42.8703ZM186.122 33.0026L182.905 41.135H182.804L179.472 33.0026H176.457L181.459 44.3702L178.609 50.6882H181.526L189.22 33.0026H186.122ZM160.903 45.0026H163.705V26.2526H160.903V45.0026Z" fill="white"/>
<path fill-rule="evenodd" clip-rule="evenodd" d="M16.1503 11.3005C15.6629 11.8943 15.4185 12.6506 15.4663 13.4173V46.5853C15.4121 47.35 15.6638 48.1049 16.1659 48.6841L16.2859 48.7849L34.8692 30.2017V29.7865L16.2691 11.1997L16.1503 11.3005Z" fill="url(#paint0_linear_1_413)"/>
<path fill-rule="evenodd" clip-rule="evenodd" d="M41.0476 36.4149L34.8496 30.2169V29.7825L41.0476 23.5845L41.182 23.6673L48.514 27.8349C50.6128 29.0169 50.6128 30.9693 48.514 32.1669L41.182 36.3345L41.0476 36.4149Z" fill="url(#paint1_linear_1_413)"/>
<path fill-rule="evenodd" clip-rule="evenodd" d="M41.1824 36.3324L34.85 30L16.1504 48.6996C16.578 49.0758 17.1231 49.2916 17.6923 49.31C18.2616 49.3284 18.8194 49.1482 19.2704 48.8004L41.1872 36.3324" fill="url(#paint2_linear_1_413)"/>
<path fill-rule="evenodd" clip-rule="evenodd" d="M41.1824 23.6679L19.2704 11.2203C18.8213 10.868 18.2625 10.685 17.6921 10.7034C17.1216 10.7218 16.5758 10.9405 16.1504 11.3211L34.85 30.0014L41.1824 23.6679Z" fill="url(#paint3_linear_1_413)"/>
<path opacity="0.2" fill-rule="evenodd" clip-rule="evenodd" d="M41.0492 36.198L19.286 48.564C18.8569 48.8954 18.3306 49.0764 17.7884 49.079C17.2463 49.0816 16.7183 48.9057 16.286 48.5784L16.166 48.6984L16.286 48.7992C16.7187 49.1255 17.2465 49.3008 17.7884 49.2982C18.3304 49.2956 18.8565 49.1152 19.286 48.7848L41.2028 36.336L41.0492 36.198Z" fill="black"/>
<path opacity="0.12" fill-rule="evenodd" clip-rule="evenodd" d="M48.5159 31.9484L41.0303 36.1976L41.1648 36.332L48.4968 32.1644C48.9271 31.9772 49.2994 31.6781 49.575 31.2983C49.8506 30.9184 50.0194 30.4716 50.0638 30.0044C49.9805 30.4288 49.7964 30.8269 49.527 31.1652C49.2576 31.5035 48.9108 31.7721 48.5159 31.9484Z" fill="black"/>
<path opacity="0.25" fill-rule="evenodd" clip-rule="evenodd" d="M19.2672 11.4351L48.5148 28.0514C48.911 28.23 49.2594 28.4995 49.5318 28.8382C49.8041 29.1768 49.9926 29.575 50.082 30.0003C50.0376 29.5331 49.8687 29.0863 49.5931 28.7064C49.3175 28.3266 48.9452 28.0275 48.5148 27.8403L19.2672 11.2191C17.1684 10.0191 15.4668 11.0211 15.4668 13.4187V13.6359C15.4668 11.2335 17.1684 10.2495 19.2672 11.4351Z" fill="white"/>
</g>
<defs>
<linearGradient id="paint0_linear_1_413" x1="63.4408" y1="50.1004" x2="61.1731" y2="49.7839" gradientUnits="userSpaceOnUse">
<stop stop-color="#00A0FF"/>
<stop offset="0.007" stop-color="#00A1FF"/>
<stop offset="0.26" stop-color="#00BEFF"/>
<stop offset="0.512" stop-color="#00D2FF"/>
<stop offset="0.76" stop-color="#00DFFF"/>
<stop offset="1" stop-color="#00E3FF"/>
</linearGradient>
<linearGradient id="paint1_linear_1_413" x1="64.5647" y1="47.6928" x2="60.6027" y2="47.6928" gradientUnits="userSpaceOnUse">
<stop stop-color="#FFE000"/>
<stop offset="0.409" stop-color="#FFBD00"/>
<stop offset="0.775" stop-color="#FFA500"/>
<stop offset="1" stop-color="#FF9C00"/>
</linearGradient>
<linearGradient id="paint2_linear_1_413" x1="64.3713" y1="48.2685" x2="62.8554" y2="44.9641" gradientUnits="userSpaceOnUse">
<stop stop-color="#FF3A44"/>
<stop offset="1" stop-color="#C31162"/>
</linearGradient>
<linearGradient id="paint3_linear_1_413" x1="62.6098" y1="51.0956" x2="63.2938" y2="49.6241" gradientUnits="userSpaceOnUse">
<stop stop-color="#32A071"/>
<stop offset="0.068" stop-color="#2DA771"/>
<stop offset="0.476" stop-color="#15CF74"/>
<stop offset="0.801" stop-color="#06E775"/>
<stop offset="1" stop-color="#00F076"/>
</linearGradient>
<clipPath id="clip0_1_413">
<rect width="204" height="60" fill="white" transform="translate(0.5)"/>
</clipPath>
</defs>
</svg>
